<svg width="24" height="24" viewBox="0 0 24 24" fill="none" xmlns="http://www.w3.org/2000/svg">
<path d="M9.6 15.6L11 14.15L8.85 12L11 9.85L9.6 8.4L6 12L9.6 15.6ZM14.4 15.6L18 12L14.4 8.4L13 9.85L15.15 12L13 14.15L14.4 15.6ZM5 21C4.45 21 3.97933 20.8043 3.588 20.413C3.19667 20.0217 3.00067 19.5507 3 19V5C3 4.45 3.196 3.97933 3.588 3.588C3.98 3.19667 4.45067 3.00067 5 3H9.2C9.41667 2.4 9.77933 1.91667 10.288 1.55C10.7967 1.18333 11.3673 1 12 1C12.6327 1 13.2037 1.18333 13.713 1.55C14.2223 1.91667 14.5847 2.4 14.8 3H19C19.55 3 20.021 3.196 20.413 3.588C20.805 3.98 21.0007 4.45067 21 5V19C21 19.55 20.8043 20.021 20.413 20.413C20.0217 20.805 19.5507 21.0007 19 21H5ZM12 4.25C12.2167 4.25 12.396 4.179 12.538 4.037C12.68 3.895 12.7507 3.716 12.75 3.5C12.7493 3.284 12.6783 3.105 12.537 2.963C12.3957 2.821 12.2167 2.75 12 2.75C11.7833 2.75 11.6043 2.821 11.463 2.963C11.3217 3.105 11.2507 3.284 11.25 3.5C11.2493 3.716 11.3203 3.89533 11.463 4.038C11.6057 4.18067 11.7847 4.25133 12 4.25Z" fill="#009641"/>
</svg>
