<svg width="35" height="40" viewBox="0 0 35 40" fill="none" xmlns="http://www.w3.org/2000/svg">
<path d="M17.5 15C19.4891 15 21.3968 14.2098 22.8033 12.8033C24.2098 11.3968 25 9.48912 25 7.5C25 5.51088 24.2098 3.60322 22.8033 2.1967C21.3968 0.790177 19.4891 0 17.5 0C15.5109 0 13.6032 0.790177 12.1967 2.1967C10.7902 3.60322 10 5.51088 10 7.5C10 9.48912 10.7902 11.3968 12.1967 12.8033C13.6032 14.2098 15.5109 15 17.5 15ZM1.16252 31.235C0.931629 31.8547 0.906652 32.5323 1.09129 33.1672C1.27593 33.8022 1.66035 34.3608 2.18752 34.76C6.56581 38.163 11.9548 40.0071 17.5 40C23.275 40 28.595 38.04 32.8275 34.75C33.9025 33.9175 34.3375 32.4925 33.8475 31.225C32.5781 27.9201 30.3364 25.0777 27.4183 23.0731C24.5002 21.0684 21.0428 19.9957 17.5024 19.9965C13.9621 19.9973 10.5052 21.0716 7.58801 23.0776C4.6708 25.0836 2.43041 27.927 1.16252 31.2325" fill="#009641"/>
</svg>
