<svg width="71" height="71" viewBox="0 0 71 71" fill="none" xmlns="http://www.w3.org/2000/svg">
<path fill-rule="evenodd" clip-rule="evenodd" d="M35.5001 10.498C44.8643 10.498 52.6643 18.298 52.6643 27.6588C52.6643 30.7159 51.6143 33.7302 50.1465 36.4588C48.6715 39.2016 46.7215 41.7588 44.7858 43.9373C43.0982 45.8326 41.2832 47.6105 39.3536 49.2588C38.7235 49.7988 38.073 50.3146 37.4036 50.8052C37.1778 50.9693 36.9455 51.1242 36.7072 51.2695C36.5095 51.387 36.3015 51.4862 36.0858 51.5659C35.6081 51.7201 35.0891 51.6817 34.6393 51.4588C34.5194 51.4019 34.4026 51.3387 34.2893 51.2695C34.0496 51.1207 33.8161 50.9623 33.5893 50.7945C32.921 50.3016 32.2717 49.7833 31.6429 49.2409C29.7155 47.5839 27.9018 45.7989 26.2143 43.898C24.2786 41.7123 22.3286 39.148 20.8572 36.4159C19.3893 33.6945 18.3358 30.6909 18.3358 27.6588C18.3358 18.298 26.1358 10.498 35.5001 10.498ZM35.5001 32.7838C34.1408 32.7838 32.8373 32.2438 31.8761 31.2827C30.915 30.3216 30.3751 29.018 30.3751 27.6588C30.3751 26.2995 30.915 24.996 31.8761 24.0348C32.8373 23.0737 34.1408 22.5338 35.5001 22.5338C36.8593 22.5338 38.1629 23.0737 39.124 24.0348C40.0851 24.996 40.6251 26.2995 40.6251 27.6588C40.6251 29.018 40.0851 30.3216 39.124 31.2827C38.1629 32.2438 36.8593 32.7838 35.5001 32.7838ZM46.5715 46.7695C47.2286 46.0302 47.8858 45.2552 48.5358 44.448H53.3322C54.0465 44.448 54.6893 44.8766 54.9751 45.5302L60.3215 58.0123C60.438 58.2841 60.4852 58.5805 60.4588 58.875C60.4325 59.1694 60.3335 59.4528 60.1706 59.6995C60.0078 59.9463 59.7862 60.1487 59.5258 60.2887C59.2654 60.4287 58.9743 60.5019 58.6786 60.5016H12.3215C12.0258 60.5019 11.7347 60.4287 11.4743 60.2887C11.2139 60.1487 10.9924 59.9463 10.8295 59.6995C10.6666 59.4528 10.5676 59.1694 10.5413 58.875C10.5149 58.5805 10.5621 58.2841 10.6786 58.0123L16.0286 45.5302C16.1664 45.2088 16.3956 44.9349 16.6876 44.7425C16.9797 44.5501 17.3218 44.4477 17.6715 44.448H22.5108C23.1429 45.2338 23.7858 45.9945 24.4286 46.7195C26.7929 49.3838 29.1786 51.6338 31.0358 53.223C31.9643 54.0195 32.7751 54.6588 33.3965 55.1088C33.7036 55.3338 33.9858 55.523 34.2251 55.6695C34.4329 55.8094 34.6604 55.9178 34.9001 55.9909C35.3878 56.1512 35.9191 56.1127 36.3786 55.8838C36.5215 55.8195 36.6536 55.7409 36.7715 55.673C37.0541 55.5001 37.3293 55.3154 37.5965 55.1195C38.2179 54.6695 39.0251 54.0338 39.9572 53.2445C41.8143 51.6659 44.2072 49.4266 46.5679 46.7695H46.5715Z" fill="#00923F"/>
</svg>
