<svg width="49" height="49" viewBox="0 0 49 49" fill="none" xmlns="http://www.w3.org/2000/svg">
<path d="M44.6212 0.349121H4.37873C3.31144 0.349121 2.28786 0.773199 1.53317 1.52806C0.778473 2.28293 0.354492 3.30674 0.354492 4.37428V44.6259C0.354492 45.6934 0.778473 46.7172 1.53317 47.4721C2.28786 48.2269 3.31144 48.651 4.37873 48.651H44.6212C45.6885 48.651 46.712 48.2269 47.4667 47.4721C48.2214 46.7172 48.6454 45.6934 48.6454 44.6259V4.37428C48.6454 3.30674 48.2214 2.28293 47.4667 1.52806C46.712 0.773199 45.6885 0.349121 44.6212 0.349121ZM21.4063 40.724C19.1642 42.2526 16.4325 42.8891 13.7458 42.5091C11.0591 42.1291 8.61095 40.7598 6.88054 38.6693C5.15012 36.5788 4.26203 33.9176 4.3901 31.2066C4.51817 28.4956 5.65319 25.93 7.57298 24.012L13.9539 17.6296C15.9981 15.5887 18.7683 14.4425 21.6566 14.4425C24.5448 14.4425 27.3151 15.5887 29.3592 17.6296C30.4637 18.7277 31.3174 20.052 31.8618 21.5114C31.9543 21.7592 31.9971 22.0227 31.9877 22.2871C31.9784 22.5514 31.917 22.8113 31.8073 23.0519C31.6975 23.2925 31.5414 23.5091 31.3479 23.6894C31.1545 23.8697 30.9274 24.0101 30.6797 24.1026C30.432 24.1951 30.1684 24.2379 29.9042 24.2285C29.6399 24.2192 29.3801 24.1578 29.1395 24.048C28.899 23.9382 28.6824 23.7821 28.5022 23.5886C28.3219 23.3951 28.1816 23.168 28.0891 22.9202C27.6847 21.8439 27.017 20.8862 26.1469 20.1348C25.2769 19.3834 24.2323 18.8622 23.1089 18.6189C21.9854 18.3757 20.8189 18.4181 19.716 18.7423C18.6132 19.0666 17.6092 19.6623 16.796 20.4749L10.4151 26.8573C9.20555 28.0672 8.49066 29.6848 8.4102 31.3939C8.32975 33.103 8.88951 34.7806 9.98005 36.0988C11.0706 37.417 12.6135 38.2809 14.3071 38.5217C16.0006 38.7625 17.7231 38.3627 19.1376 37.4007C19.3552 37.2379 19.6035 37.121 19.8675 37.0568C20.1315 36.9926 20.4058 36.9826 20.6738 37.0273C20.9418 37.072 21.1979 37.1706 21.4268 37.317C21.6557 37.4634 21.8525 37.6547 22.0055 37.8793C22.1585 38.1039 22.2644 38.3571 22.3169 38.6237C22.3694 38.8904 22.3673 39.1649 22.3108 39.4307C22.2544 39.6965 22.1447 39.9482 21.9884 40.1704C21.832 40.3927 21.6323 40.581 21.4013 40.724H21.4063ZM41.4294 24.9881L35.0485 31.3705C34.0398 32.3858 32.8397 33.1908 31.5177 33.7388C30.1957 34.2868 28.7781 34.5669 27.3471 34.563C25.1304 34.5601 22.9673 33.8814 21.1461 32.6176C19.3248 31.3537 17.932 29.5646 17.1532 27.4887C16.9664 26.9883 16.986 26.4342 17.2077 25.9483C17.4294 25.4623 17.835 25.0844 18.3353 24.8976C18.8356 24.7107 19.3896 24.7303 19.8754 24.9521C20.3613 25.1738 20.7391 25.5795 20.9259 26.0799C21.4169 27.3854 22.2929 28.5107 23.4379 29.3069C24.5828 30.103 25.9426 30.5323 27.337 30.5378C28.2398 30.5404 29.1341 30.3639 29.9682 30.0184C30.8023 29.6729 31.5596 29.1654 32.1963 28.5252L38.5848 22.1428C39.7943 20.933 40.5092 19.3153 40.5897 17.6063C40.6701 15.8972 40.1104 14.2195 39.0198 12.9013C37.9293 11.5831 36.3864 10.7192 34.6928 10.4784C32.9993 10.2377 31.2768 10.6374 29.8623 11.5994C29.6447 11.7622 29.3964 11.8792 29.1324 11.9433C28.8684 12.0075 28.5941 12.0175 28.3261 11.9728C28.0581 11.9281 27.802 11.8295 27.5731 11.6831C27.3442 11.5367 27.1473 11.3454 26.9944 11.1208C26.8414 10.8963 26.7355 10.643 26.683 10.3764C26.6305 10.1097 26.6326 9.83524 26.6891 9.56942C26.7455 9.3036 26.8552 9.05197 27.0115 8.82971C27.1679 8.60744 27.3676 8.41914 27.5986 8.27617C29.8412 6.75526 32.5698 6.12465 35.2521 6.5074C37.9344 6.89014 40.3779 8.25877 42.1058 10.3462C43.8337 12.4337 44.722 15.0902 44.5974 17.7974C44.4728 20.5046 43.3443 23.0683 41.4319 24.9881H41.4294Z" fill="#009641"/>
</svg>
