<svg width="30" height="42" viewBox="0 0 30 42" fill="none" xmlns="http://www.w3.org/2000/svg">
<path fillRule="evenodd" clipRule="evenodd" d="M10.8332 0.166748C10.0044 0.166748 9.20951 0.495988 8.62346 1.08204C8.03741 1.66809 7.70817 2.46295 7.70817 3.29175H3.5415C2.7127 3.29175 1.91785 3.62099 1.33179 4.20704C0.745744 4.79309 0.416504 5.58795 0.416504 6.41675V38.7084C0.416504 39.5372 0.745744 40.3321 1.33179 40.9181C1.91785 41.5042 2.7127 41.8334 3.5415 41.8334H26.4582C27.287 41.8334 28.0818 41.5042 28.6679 40.9181C29.2539 40.3321 29.5832 39.5372 29.5832 38.7084V6.41675C29.5832 5.58795 29.2539 4.79309 28.6679 4.20704C28.0818 3.62099 27.287 3.29175 26.4582 3.29175H22.2915C22.2915 2.46295 21.9623 1.66809 21.3762 1.08204C20.7902 0.495988 19.9953 0.166748 19.1665 0.166748H10.8332ZM9.7915 3.29175C9.7915 3.01548 9.90125 2.75053 10.0966 2.55518C10.292 2.35983 10.5569 2.25008 10.8332 2.25008H19.1665C19.4428 2.25008 19.7077 2.35983 19.9031 2.55518C20.0984 2.75053 20.2082 3.01548 20.2082 3.29175V5.37508C20.2082 5.65135 20.0984 5.9163 19.9031 6.11165C19.7077 6.307 19.4428 6.41675 19.1665 6.41675H10.8332C10.5569 6.41675 10.292 6.307 10.0966 6.11165C9.90125 5.9163 9.7915 5.65135 9.7915 5.37508V3.29175ZM6.6665 16.8334C6.39024 16.8334 6.12528 16.9432 5.92993 17.1385C5.73458 17.3339 5.62484 17.5988 5.62484 17.8751C5.62484 18.1514 5.73458 18.4163 5.92993 18.6117C6.12528 18.807 6.39024 18.9167 6.6665 18.9167H13.9582C14.2344 18.9167 14.4994 18.807 14.6947 18.6117C14.8901 18.4163 14.9998 18.1514 14.9998 17.8751C14.9998 17.5988 14.8901 17.3339 14.6947 17.1385C14.4994 16.9432 14.2344 16.8334 13.9582 16.8334H6.6665ZM5.62484 12.6667C5.62484 12.3905 5.73458 12.1255 5.92993 11.9302C6.12528 11.7348 6.39024 11.6251 6.6665 11.6251H22.8123C23.0886 11.6251 23.3536 11.7348 23.5489 11.9302C23.7443 12.1255 23.854 12.3905 23.854 12.6667C23.854 12.943 23.7443 13.208 23.5489 13.4033C23.3536 13.5987 23.0886 13.7084 22.8123 13.7084H6.6665C6.39024 13.7084 6.12528 13.5987 5.92993 13.4033C5.73458 13.208 5.62484 12.943 5.62484 12.6667ZM5.62484 25.1667C5.62484 24.8905 5.73458 24.6255 5.92993 24.4302C6.12528 24.2348 6.39024 24.1251 6.6665 24.1251H10.8332C11.1094 24.1251 11.3744 24.2348 11.5697 24.4302C11.7651 24.6255 11.8748 24.8905 11.8748 25.1667V29.3334C11.8748 29.6097 11.7651 29.8746 11.5697 30.07C11.3744 30.2653 11.1094 30.3751 10.8332 30.3751H6.6665C6.39024 30.3751 6.12528 30.2653 5.92993 30.07C5.73458 29.8746 5.62484 29.6097 5.62484 29.3334V25.1667ZM19.1665 29.3334C19.9953 29.3334 20.7902 29.0042 21.3762 28.4181C21.9623 27.8321 22.2915 27.0372 22.2915 26.2084C22.2915 25.3796 21.9623 24.5848 21.3762 23.9987C20.7902 23.4127 19.9953 23.0834 19.1665 23.0834C18.3377 23.0834 17.5428 23.4127 16.9568 23.9987C16.3707 24.5848 16.0415 25.3796 16.0415 26.2084C16.0415 27.0372 16.3707 27.8321 16.9568 28.4181C17.5428 29.0042 18.3377 29.3334 19.1665 29.3334ZM12.9165 34.0209C12.9165 31.8168 17.08 30.7063 19.1665 30.7063C21.253 30.7063 25.4165 31.8168 25.4165 34.0209V36.6251H12.9165V34.0209Z" fill="#009641"/>
</svg>
