<svg width="75" height="69" viewBox="0 0 75 69" fill="none" xmlns="http://www.w3.org/2000/svg">
<path d="M51.3751 59.1665H54.4584V51.4582H62.1667V48.3748H54.4584V40.6665H51.3751V48.3748H43.6667V51.4582H51.3751V59.1665ZM52.9167 65.3332C48.6515 65.3332 45.0162 63.8295 42.011 60.8223C39.0058 57.815 37.5021 54.1797 37.5001 49.9165C37.498 45.6533 39.0017 42.018 42.011 39.0108C45.0203 36.0035 48.6556 34.4998 52.9167 34.4998C57.1779 34.4998 60.8142 36.0035 63.8256 39.0108C66.837 42.018 68.3396 45.6533 68.3334 49.9165C68.3272 54.1797 66.8236 57.816 63.8225 60.8253C60.8214 63.8347 57.1861 65.3373 52.9167 65.3332ZM19.0001 22.1665H49.8334V15.9998H19.0001V22.1665ZM33.4147 59.1665H12.8334C11.1376 59.1665 9.68636 58.5632 8.47975 57.3566C7.27314 56.15 6.6688 54.6977 6.66675 52.9998V9.83317C6.66675 8.13734 7.27108 6.68612 8.47975 5.4795C9.68841 4.27289 11.1396 3.66856 12.8334 3.6665H56.0001C57.6959 3.6665 59.1482 4.27084 60.3568 5.4795C61.5655 6.68817 62.1688 8.13939 62.1667 9.83317V30.4915C60.6765 29.7721 59.1728 29.2325 57.6558 28.8728C56.1388 28.513 54.5591 28.3332 52.9167 28.3332C52.3515 28.3332 51.8242 28.3455 51.335 28.3702C50.8458 28.3948 50.3452 28.4596 49.8334 28.5644V28.3332H19.0001V34.4998H37.8855C36.9605 35.3734 36.1259 36.3241 35.3818 37.3519C34.6377 38.3797 33.982 39.4846 33.4147 40.6665H19.0001V46.8332H31.5647C31.4619 47.3471 31.3982 47.8486 31.3735 48.3378C31.3488 48.8271 31.3355 49.3533 31.3334 49.9165C31.3334 51.6123 31.4876 53.1931 31.7959 54.6587C32.1042 56.1243 32.6438 57.6269 33.4147 59.1665Z" fill="#009641"/>
</svg>
