<svg width="39" height="34" viewBox="0 0 39 34" fill="none" xmlns="http://www.w3.org/2000/svg">
<path d="M4.11667 33.6668C3.15694 33.6668 2.35625 33.346 1.71458 32.7043C1.07292 32.0627 0.751389 31.2613 0.75 30.3002V22.2085H15.3333V25.3335H23.6667V22.2085H38.25V30.3022C38.25 31.2606 37.9292 32.0606 37.2875 32.7023C36.6458 33.3439 35.8451 33.6654 34.8854 33.6668H4.11667ZM17.4167 23.2502V19.0835H21.5833V23.2502H17.4167ZM0.75 20.1252V9.95017C0.75 8.99045 1.07153 8.18975 1.71458 7.54808C2.35764 6.90642 3.15764 6.58489 4.11458 6.5835H13.25V3.69808C13.25 2.73975 13.5715 1.93906 14.2146 1.296C14.8576 0.652945 15.6583 0.332112 16.6167 0.333501H22.3854C23.3438 0.333501 24.1444 0.654334 24.7875 1.296C25.4306 1.93767 25.7514 2.73836 25.75 3.69808V6.5835H34.8854C35.8438 6.5835 36.6437 6.90503 37.2854 7.54808C37.9271 8.19114 38.2486 8.99183 38.25 9.95017V20.1252H23.6667V17.0002H15.3333V20.1252H0.75ZM15.3333 6.5835H23.6667V3.69808C23.6667 3.37864 23.5333 3.08489 23.2667 2.81683C23 2.54878 22.7062 2.41544 22.3854 2.41683H16.6146C16.2951 2.41683 16.0014 2.55017 15.7333 2.81683C15.4653 3.0835 15.3319 3.37725 15.3333 3.69808V6.5835Z" fill="#009641"/>
</svg>
