<svg width="75" height="79" viewBox="0 0 75 79" fill="none" xmlns="http://www.w3.org/2000/svg">
<path d="M39.1894 38.4199C38.2563 38.4199 37.3861 39.2891 37.1579 40.5255C37.1113 40.7849 37.0884 41.0479 37.0895 41.3114V43.3315C37.0895 43.612 37.1123 43.8664 37.1579 44.0911C37.3861 45.2431 38.1856 46.1134 39.1894 46.1134C40.6733 46.1134 41.5881 44.7059 41.5881 42.2376C41.5881 40.1035 40.8113 38.4199 39.1894 38.4199ZM17.4399 44.6797C17.4399 45.8808 18.1141 46.4636 18.9958 46.4636C19.9824 46.4636 20.7877 45.6971 21.0455 44.739C21.0956 44.4937 21.123 44.2177 21.123 43.9394V42.3038C19.0494 42.2764 17.4399 42.8615 17.4399 44.6797Z" fill="#00923F"/>
<path d="M37.5 5.28125C18.6021 5.28125 3.28125 20.601 3.28125 39.5C3.28125 58.3979 18.6021 73.7188 37.5 73.7188C56.3979 73.7188 71.7188 58.3979 71.7188 39.5C71.7188 20.601 56.3979 5.28125 37.5 5.28125ZM21.5906 49.4269L21.3567 47.9167H21.2803C20.4488 49.1155 19.1508 49.7656 17.6474 49.7656C15.0787 49.7656 13.5469 47.5471 13.5469 45.1404C13.5469 41.2303 16.5045 39.3483 20.994 39.3791V39.1635C20.994 38.3594 20.6313 37.2199 18.6865 37.2199C17.3862 37.2199 16.0118 37.7434 15.1825 38.3594L14.4548 35.3424C15.3377 34.7539 17.076 34.0147 19.3846 34.0147C23.6152 34.0147 24.9657 36.9735 24.9657 40.5186V45.7563C24.9657 47.2061 25.017 48.5942 25.1447 49.428L21.5906 49.4269ZM40.0117 49.485C38.7113 49.485 37.4544 48.8919 36.6559 47.2665H36.6126L36.4746 49.1736H33.5295C33.5728 48.2782 33.6207 46.6186 33.6207 45.0742V29.2344H37.0905V37.0693H37.135C37.7988 35.8888 38.9634 35.1314 40.5124 35.1314C43.1883 35.1314 45.1502 37.8564 45.1274 42.0698C45.1274 47.0122 42.5678 49.485 40.0117 49.485ZM58.9677 46.0917C59.8129 46.0917 60.4665 45.9046 61.0014 45.6286L61.4269 49.0858C60.7961 49.4577 59.5996 49.7656 58.2434 49.7656C54.5432 49.7656 52.1764 46.8023 52.1764 42.0436C52.1764 37.6248 54.4736 34.0136 58.7362 34.0136C59.6715 34.0136 60.7026 34.2292 61.4543 34.5999L60.8908 38.0936C60.4688 37.8438 59.8391 37.626 58.8993 37.626C57.0252 37.626 55.8047 39.3882 55.831 41.8611C55.8287 44.6374 57.2362 46.0917 58.9677 46.0917Z" fill="#00923F"/>
</svg>
