<svg width="195" height="88" viewBox="0 0 195 88" fill="none" xmlns="http://www.w3.org/2000/svg">
<rect x="6.90581" y="34" width="161" height="43" rx="7" transform="rotate(3.87482 6.90581 34)" fill="#F2841E"/>
<path d="M23.0423 52.7693L22.4771 61.1142L21.3876 61.0404L21.6439 57.257L17.3936 56.9692L17.1373 60.7525L16.0478 60.6787L16.613 52.3338L17.7026 52.4076L17.4544 56.0712L21.7047 56.3591L21.9528 52.6955L23.0423 52.7693ZM30.5629 58.1137C30.5489 58.3212 30.522 58.5399 30.4824 58.7698L25.2384 58.4146C25.2346 59.0638 25.4197 59.5855 25.7939 59.9797C26.1767 60.3665 26.6554 60.5793 27.2301 60.6182C27.701 60.6501 28.0994 60.5689 28.4253 60.3744C28.7597 60.1726 29.0032 59.8924 29.1558 59.5339L30.3291 59.6133C30.1108 60.232 29.7247 60.723 29.1709 61.0864C28.6176 61.4419 27.9498 61.5931 27.1676 61.5401C26.5451 61.4979 25.9958 61.3204 25.5199 61.0075C25.0519 60.6952 24.6955 60.2742 24.4508 59.7444C24.2066 59.2067 24.1074 58.5986 24.1534 57.9201C24.1993 57.2417 24.3753 56.6562 24.6813 56.1638C24.9872 55.6713 25.3929 55.3059 25.8981 55.0675C26.4119 54.8217 26.9881 54.7204 27.6266 54.7636C28.2492 54.8058 28.7907 54.9788 29.2513 55.2826C29.7118 55.5864 30.0535 55.9864 30.2765 56.4826C30.508 56.9714 30.6035 57.5151 30.5629 58.1137ZM29.4529 57.81C29.481 57.395 29.4133 57.0336 29.2497 56.7258C29.0867 56.4101 28.8507 56.1656 28.5417 55.9923C28.2412 55.8116 27.8994 55.7082 27.5163 55.6823C26.9655 55.645 26.4827 55.7887 26.0678 56.1134C25.6609 56.4386 25.4085 56.9106 25.3104 57.5294L29.4529 57.81ZM33.4514 52.9571L32.8513 61.8168L31.7618 61.743L32.3619 52.8833L33.4514 52.9571ZM36.1602 56.6647C36.4011 56.3041 36.7415 56.0144 37.1812 55.7957C37.6296 55.5694 38.1371 55.4755 38.7038 55.5139C39.2864 55.5534 39.8038 55.7287 40.2558 56.04C40.7157 56.3518 41.0641 56.7723 41.3009 57.3015C41.5382 57.8227 41.6342 58.4186 41.5888 59.089C41.5439 59.7515 41.3682 60.333 41.0617 60.8334C40.7552 61.3338 40.3527 61.7115 39.8544 61.9664C39.364 62.2219 38.8275 62.3298 38.2448 62.2904C37.6861 62.2525 37.1996 62.0953 36.7853 61.8187C36.3796 61.5346 36.0777 61.1974 35.8796 60.8072L35.5869 65.1293L34.4974 65.0555L35.1526 55.3816L36.2421 55.4554L36.1602 56.6647ZM40.4753 59.0136C40.5088 58.5188 40.4383 58.081 40.2636 57.7003C40.0889 57.3196 39.8365 57.0219 39.5062 56.8071C39.184 56.5928 38.8193 56.4719 38.4122 56.4443C38.0131 56.4173 37.6352 56.4919 37.2785 56.6682C36.9303 56.8371 36.6397 57.1021 36.4068 57.4631C36.1824 57.8168 36.0537 58.2371 36.0207 58.7239C35.9872 59.2188 36.0575 59.6606 36.2316 60.0492C36.4143 60.4304 36.6665 60.7322 36.9882 60.9544C37.3184 61.1692 37.6831 61.2901 38.0822 61.3172C38.4892 61.3447 38.8669 61.2741 39.2151 61.1052C39.5718 60.9289 39.8624 60.664 40.0868 60.3103C40.3118 59.9487 40.4413 59.5165 40.4753 59.0136ZM43.8783 54.9022C43.6708 54.8881 43.5001 54.8044 43.3661 54.651C43.2322 54.4976 43.1722 54.3171 43.1863 54.1096C43.2003 53.9021 43.2841 53.7314 43.4375 53.5974C43.5909 53.4635 43.7713 53.4035 43.9789 53.4176C44.1784 53.4311 44.3412 53.5143 44.4671 53.6672C44.6011 53.8206 44.661 54.001 44.6469 54.2085C44.6329 54.4161 44.5492 54.5868 44.3958 54.7207C44.2503 54.8552 44.0779 54.9157 43.8783 54.9022ZM44.3329 56.0034L43.8885 62.5644L42.799 62.4906L43.2434 55.9296L44.3329 56.0034ZM49.3946 56.226C50.1928 56.2801 50.8228 56.5673 51.2847 57.0877C51.7471 57.6001 51.9475 58.3113 51.8859 59.2212L51.6239 63.0883L50.5464 63.0153L50.7978 59.3039C50.8421 58.6493 50.7123 58.1394 50.4083 57.774C50.1048 57.4007 49.6697 57.1948 49.103 57.1564C48.5284 57.1175 48.0572 57.266 47.6897 57.6019C47.3301 57.9384 47.1271 58.4498 47.0806 59.1363L46.8349 62.764L45.7454 62.6902L46.1898 56.1292L47.2793 56.203L47.2161 57.1369C47.4543 56.8162 47.7632 56.5765 48.1428 56.4178C48.5303 56.2597 48.9476 56.1957 49.3946 56.226ZM56.5611 56.7234C57.1278 56.7618 57.6143 56.919 58.0206 57.1951C58.4348 57.4718 58.733 57.8047 58.9151 58.1939L58.9962 56.9966L60.0977 57.0712L59.6436 63.7758C59.6031 64.3745 59.4394 64.8966 59.1526 65.3422C58.8653 65.7959 58.4733 66.1382 57.9765 66.3691C57.4878 66.6006 56.9281 66.695 56.2976 66.6523C55.4355 66.5939 54.731 66.3417 54.1839 65.8957C53.6368 65.4497 53.3351 64.872 53.2789 64.1626L54.3564 64.2356C54.4491 64.6428 54.6749 64.9788 55.0339 65.2437C55.3923 65.5165 55.8348 65.6708 56.3616 65.7065C56.9603 65.747 57.4598 65.5924 57.8604 65.2427C58.2689 64.8935 58.4962 64.3797 58.5421 63.7012L58.6354 62.3244C58.3939 62.6929 58.053 62.9906 57.6127 63.2173C57.1724 63.4441 56.6689 63.5383 56.1022 63.4999C55.5195 63.4604 54.9984 63.2808 54.539 62.961C54.0875 62.6418 53.7437 62.2136 53.5074 61.6764C53.2712 61.1392 53.1755 60.5394 53.2204 59.8769C53.2658 59.2064 53.4412 58.6289 53.7467 58.1445C54.0526 57.652 54.4506 57.2821 54.9404 57.0346C55.4382 56.7877 55.9785 56.684 56.5611 56.7234ZM58.7749 60.2651C58.8084 59.7702 58.7378 59.3325 58.5631 58.9518C58.3884 58.5711 58.136 58.2734 57.8058 58.0586C57.484 57.8363 57.1196 57.7114 56.7126 57.6838C56.3055 57.6563 55.9279 57.7269 55.5797 57.8958C55.2315 58.0646 54.9452 58.3259 54.7207 58.6795C54.4963 59.0332 54.3674 59.4574 54.3338 59.9523C54.2998 60.4551 54.3698 60.9009 54.544 61.2895C54.7186 61.6702 54.9668 61.9717 55.2885 62.1939C55.6108 62.4082 55.9755 62.5291 56.3825 62.5567C56.7896 62.5843 57.1672 62.5136 57.5154 62.3448C57.8722 62.1685 58.1627 61.9035 58.3872 61.5498C58.6121 61.1882 58.7413 60.76 58.7749 60.2651ZM70.7818 57.7949L66.1773 67.1771L65.0519 67.1009L66.559 64.0277L64.3526 57.3594L65.5618 57.4413L67.261 62.8966L69.6564 57.7186L70.7818 57.7949ZM74.2868 64.7316C73.6722 64.6899 73.1229 64.5124 72.639 64.199C72.1631 63.8861 71.7987 63.4645 71.546 62.9342C71.3018 62.3965 71.2026 61.7884 71.2486 61.11C71.294 60.4395 71.4777 59.8586 71.7996 59.3672C72.1301 58.8684 72.5559 58.5004 73.0772 58.263C73.5989 58.0177 74.1711 57.9162 74.7937 57.9583C75.4162 58.0005 75.9695 58.1783 76.4534 58.4917C76.9379 58.7972 77.3065 59.215 77.5592 59.7453C77.82 60.2761 77.9273 60.8808 77.8814 61.5592C77.8354 62.2377 77.6432 62.826 77.3048 63.3243C76.9749 63.8151 76.545 64.1829 76.0153 64.4277C75.4855 64.6724 74.9094 64.7737 74.2868 64.7316ZM74.3517 63.7738C74.7428 63.8003 75.1162 63.7333 75.4718 63.573C75.8274 63.4127 76.1215 63.156 76.3539 62.8028C76.5942 62.4503 76.7323 62.0106 76.7679 61.4838C76.8036 60.957 76.7301 60.503 76.5475 60.1218C76.3648 59.7406 76.1118 59.4508 75.7885 59.2525C75.4657 59.0462 75.1087 58.9299 74.7176 58.9034C74.3186 58.8763 73.9452 58.9433 73.5975 59.1041C73.2584 59.2576 72.9766 59.5111 72.7522 59.8647C72.5278 60.2184 72.3977 60.6586 72.362 61.1854C72.3258 61.7202 72.3911 62.1776 72.5577 62.5578C72.7324 62.9384 72.9772 63.2316 73.292 63.4374C73.6073 63.6351 73.9606 63.7473 74.3517 63.7738ZM85.3539 58.7819L84.9096 65.3428L83.8201 65.269L83.8857 64.2993C83.6555 64.6204 83.3463 64.8641 82.9582 65.0302C82.5786 65.189 82.1653 65.2532 81.7184 65.2229C81.2075 65.1883 80.7556 65.0535 80.3626 64.8184C79.9701 64.5753 79.6685 64.2341 79.4577 63.7949C79.2549 63.3562 79.174 62.8335 79.2151 62.2269L79.4754 58.3837L80.5529 58.4567L80.3024 62.1562C80.2586 62.8027 80.3884 63.3127 80.6919 63.686C80.9959 64.0514 81.4312 64.2533 81.9979 64.2917C82.5806 64.3311 83.0517 64.1826 83.4113 63.8462C83.7708 63.5097 83.9739 62.9982 84.0204 62.3118L84.2644 58.7081L85.3539 58.7819ZM93.0985 59.1982C93.6652 59.2365 94.1517 59.3938 94.558 59.6699C94.9722 59.9465 95.2704 60.2794 95.4525 60.6686L95.5336 59.4713L96.6351 59.5459L96.181 66.2506C96.1404 66.8492 95.9768 67.3713 95.69 67.817C95.4027 68.2706 95.0107 68.6129 94.5139 68.8439C94.0252 69.0754 93.4655 69.1698 92.8349 69.127C91.9729 69.0687 91.2684 68.8165 90.7212 68.3705C90.1741 67.9245 89.8725 67.3468 89.8163 66.6374L90.8938 66.7103C90.9865 67.1175 91.2123 67.4536 91.5712 67.7184C91.9296 67.9913 92.3722 68.1455 92.899 68.1812C93.4976 68.2218 93.9972 68.0672 94.3978 67.7174C94.8063 67.3682 95.0336 66.8544 95.0795 66.176L95.1728 64.7991C94.9313 65.1677 94.5904 65.4653 94.1501 65.6921C93.7097 65.9188 93.2062 66.013 92.6395 65.9746C92.0569 65.9352 91.5358 65.7555 91.0764 65.4358C90.6249 65.1165 90.2811 64.6883 90.0448 64.1511C89.8086 63.6139 89.7129 63.0141 89.7578 62.3516C89.8032 61.6811 89.9786 61.1037 90.2841 60.6192C90.59 60.1268 90.9879 59.7568 91.4778 59.5093C91.9756 59.2624 92.5158 59.1587 93.0985 59.1982ZM95.3122 62.7399C95.3458 62.245 95.2752 61.8072 95.1005 61.4265C94.9258 61.0459 94.6734 60.7481 94.3431 60.5333C94.0214 60.3111 93.657 60.1862 93.25 60.1586C92.8429 60.131 92.4653 60.2017 92.117 60.3705C91.7688 60.5394 91.4825 60.8006 91.2581 61.1543C91.0337 61.5079 90.9047 61.9322 90.8712 62.427C90.8372 62.9299 90.9072 63.3756 91.0813 63.7643C91.256 64.145 91.5042 64.4464 91.8259 64.6687C92.1482 64.8829 92.5128 65.0039 92.9199 65.0314C93.327 65.059 93.7046 64.9884 94.0528 64.8195C94.4096 64.6432 94.7001 64.3782 94.9245 64.0246C95.1495 63.663 95.2787 63.2347 95.3122 62.7399ZM104.257 63.1052C104.243 63.3127 104.216 63.5314 104.177 63.7612L98.9329 63.406C98.929 64.0553 99.1142 64.577 99.4884 64.9712C99.8711 65.3579 100.35 65.5707 100.925 65.6097C101.395 65.6416 101.794 65.5603 102.12 65.3659C102.454 65.164 102.698 64.8838 102.85 64.5253L104.023 64.6048C103.805 65.2235 103.419 65.7145 102.865 66.0779C102.312 66.4333 101.644 66.5845 100.862 66.5316C100.239 66.4894 99.6902 66.3119 99.2143 65.999C98.7463 65.6867 98.39 65.2656 98.1452 64.7359C97.901 64.1981 97.8019 63.59 97.8478 62.9116C97.8938 62.2331 98.0697 61.6477 98.3757 61.1552C98.6817 60.6628 99.0873 60.2974 99.5926 60.059C100.106 59.8131 100.683 59.7118 101.321 59.7551C101.944 59.7973 102.485 59.9702 102.946 60.2741C103.406 60.5779 103.748 60.9779 103.971 61.4741C104.202 61.9628 104.298 62.5065 104.257 63.1052ZM103.147 62.8015C103.175 62.3864 103.108 62.025 102.944 61.7173C102.781 61.4015 102.545 61.157 102.236 60.9837C101.936 60.803 101.594 60.6997 101.211 60.6737C100.66 60.6364 100.177 60.7801 99.7623 61.1048C99.3554 61.4301 99.1029 61.9021 99.0049 62.5209L103.147 62.8015ZM107.169 61.1615L106.907 65.0286C106.885 65.3479 106.938 65.58 107.064 65.7248C107.191 65.8617 107.422 65.9415 107.758 65.9642L108.56 66.0186L108.497 66.9405L107.516 66.874C106.909 66.8329 106.463 66.6624 106.179 66.3625C105.895 66.0626 105.774 65.5934 105.817 64.9548L106.079 61.0877L105.229 61.0301L105.29 60.1322L106.14 60.1897L106.252 58.5375L107.342 58.6113L107.23 60.2635L108.942 60.3795L108.881 61.2774L107.169 61.1615ZM115.325 67.5111C114.822 67.4771 114.377 67.3627 113.989 67.1681C113.602 66.9654 113.303 66.7046 113.092 66.3857C112.881 66.0587 112.778 65.6949 112.781 65.2942L113.906 65.3704C113.916 65.6998 114.049 65.9775 114.307 66.2034C114.572 66.4298 114.928 66.5582 115.375 66.5884C115.79 66.6165 116.124 66.5469 116.376 66.3796C116.627 66.2122 116.763 65.9888 116.782 65.7095C116.801 65.4221 116.688 65.202 116.442 65.049C116.196 64.888 115.81 64.7216 115.285 64.5497C114.806 64.389 114.416 64.2342 114.113 64.0855C113.819 63.9292 113.569 63.7158 113.363 63.4453C113.165 63.1673 113.081 62.8168 113.109 62.3937C113.132 62.0585 113.253 61.758 113.471 61.4921C113.69 61.2263 113.988 61.026 114.366 60.8912C114.744 60.7485 115.169 60.693 115.64 60.7249C116.366 60.7741 116.941 60.9974 117.363 61.3949C117.785 61.7923 117.99 62.3114 117.979 62.9521L116.889 62.8783C116.889 62.5334 116.768 62.2486 116.526 62.0238C116.293 61.7995 115.965 61.673 115.542 61.6444C115.15 61.6179 114.834 61.6806 114.591 61.8326C114.348 61.9845 114.217 62.1962 114.199 62.4675C114.184 62.683 114.24 62.8672 114.366 63.0201C114.5 63.1655 114.668 63.2891 114.87 63.391C115.08 63.4854 115.369 63.5972 115.737 63.7264C116.2 63.886 116.574 64.0396 116.861 64.1873C117.148 64.3271 117.387 64.5277 117.578 64.7892C117.776 65.0512 117.866 65.382 117.847 65.7817C117.823 66.1408 117.701 66.4573 117.482 66.7312C117.263 67.005 116.965 67.2133 116.586 67.356C116.216 67.4913 115.796 67.543 115.325 67.5111ZM120.977 62.0967L120.715 65.9639C120.693 66.2831 120.746 66.5152 120.872 66.6601C120.999 66.797 121.231 66.8768 121.566 66.8995L122.368 66.9538L122.306 67.8757L121.324 67.8092C120.717 67.7681 120.272 67.5976 119.987 67.2977C119.703 66.9978 119.582 66.5286 119.626 65.8901L119.887 62.0229L119.037 61.9654L119.098 61.0674L119.948 61.125L120.06 59.4728L121.15 59.5466L121.038 61.1988L122.75 61.3147L122.689 62.2127L120.977 62.0967ZM123.442 64.6331C123.488 63.9627 123.663 63.3852 123.969 62.9007C124.275 62.4083 124.672 62.0383 125.162 61.7909C125.66 61.5439 126.2 61.4402 126.783 61.4797C127.358 61.5186 127.848 61.6761 128.254 61.9522C128.661 62.2283 128.955 62.5609 129.137 62.9501L129.218 61.7529L130.32 61.8275L129.875 68.3884L128.774 68.3138L128.856 67.0926C128.615 67.4611 128.27 67.7585 127.822 67.9847C127.382 68.2035 126.879 68.2937 126.312 68.2553C125.729 68.2159 125.212 68.0365 124.761 67.7173C124.309 67.398 123.966 66.9698 123.729 66.4326C123.493 65.8954 123.397 65.2956 123.442 64.6331ZM128.997 65.0214C129.03 64.5265 128.96 64.0887 128.785 63.7081C128.61 63.3274 128.358 63.0296 128.028 62.8148C127.706 62.5926 127.342 62.4677 126.934 62.4401C126.527 62.4125 126.15 62.4832 125.802 62.652C125.453 62.8209 125.167 63.0821 124.943 63.4358C124.718 63.7894 124.589 64.2137 124.556 64.7085C124.522 65.2114 124.592 65.6571 124.766 66.0458C124.941 66.4265 125.189 66.7279 125.51 66.9502C125.833 67.1644 126.197 67.2854 126.604 67.3129C127.012 67.3405 127.389 67.2699 127.737 67.101C128.094 66.9247 128.385 66.6597 128.609 66.3061C128.834 65.9445 128.963 65.5162 128.997 65.0214ZM133.178 63.0915C133.395 62.7294 133.686 62.4564 134.051 62.2727C134.425 62.0895 134.867 62.0152 135.378 62.0498L135.301 63.1752L135.014 63.1557C133.793 63.073 133.137 63.6941 133.048 65.0191L132.806 68.5869L131.716 68.5131L132.161 61.9522L133.25 62.026L133.178 63.0915ZM137.895 63.2426L137.633 67.1098C137.612 67.429 137.664 67.6611 137.791 67.806C137.918 67.9429 138.149 68.0227 138.484 68.0454L139.286 68.0997L139.224 69.0216L138.242 68.9551C137.635 68.914 137.19 68.7435 136.906 68.4436C136.621 68.1437 136.501 67.6745 136.544 67.036L136.806 63.1688L135.956 63.1113L136.017 62.2133L136.867 62.2709L136.978 60.6187L138.068 60.6925L137.956 62.3447L139.668 62.4607L139.607 63.3586L137.895 63.2426ZM146.769 65.9846C146.755 66.1921 146.728 66.4108 146.689 66.6406L141.445 66.2855C141.441 66.9347 141.626 67.4564 142 67.8506C142.383 68.2373 142.862 68.4502 143.436 68.4891C143.907 68.521 144.306 68.4397 144.632 68.2453C144.966 68.0434 145.21 67.7632 145.362 67.4047L146.535 67.4842C146.317 68.1029 145.931 68.5939 145.377 68.9573C144.824 69.3127 144.156 69.464 143.374 69.411C142.751 69.3688 142.202 69.1913 141.726 68.8784C141.258 68.5661 140.902 68.145 140.657 67.6153C140.413 67.0775 140.314 66.4694 140.36 65.791C140.406 65.1126 140.582 64.5271 140.888 64.0347C141.194 63.5422 141.599 63.1768 142.105 62.9384C142.618 62.6925 143.194 62.5912 143.833 62.6345C144.456 62.6767 144.997 62.8497 145.458 63.1535C145.918 63.4573 146.26 63.8573 146.483 64.3535C146.714 64.8423 146.81 65.386 146.769 65.9846ZM145.659 65.6809C145.687 65.2658 145.62 64.9044 145.456 64.5967C145.293 64.2809 145.057 64.0364 144.748 63.8631C144.448 63.6824 144.106 63.5791 143.723 63.5531C143.172 63.5158 142.689 63.6595 142.274 63.9842C141.867 64.3095 141.615 64.7815 141.517 65.4003L145.659 65.6809ZM147.785 66.2819C147.83 65.6114 148.006 65.034 148.311 64.5495C148.617 64.0571 149.015 63.6871 149.505 63.4396C150.003 63.1927 150.547 63.0892 151.138 63.1293C151.649 63.1639 152.115 63.3157 152.538 63.5849C152.961 63.8461 153.276 64.1761 153.481 64.5749L153.717 61.1029L154.818 61.1775L154.218 70.0372L153.116 69.9626L153.2 68.7294C152.958 69.1059 152.617 69.4076 152.176 69.6343C151.737 69.8531 151.233 69.9433 150.667 69.9049C150.084 69.8655 149.563 69.6858 149.104 69.3661C148.652 69.0468 148.308 68.6186 148.072 68.0814C147.836 67.5442 147.74 66.9444 147.785 66.2819ZM153.339 66.6701C153.373 66.1753 153.302 65.7375 153.128 65.3568C152.953 64.9762 152.701 64.6784 152.37 64.4636C152.049 64.2414 151.684 64.1164 151.277 64.0889C150.87 64.0613 150.492 64.1319 150.144 64.3008C149.796 64.4697 149.51 64.7309 149.285 65.0845C149.061 65.4382 148.932 65.8624 148.898 66.3573C148.864 66.8602 148.934 67.3059 149.109 67.6946C149.283 68.0752 149.531 68.3767 149.853 68.599C150.175 68.8132 150.54 68.9341 150.947 68.9617C151.354 68.9893 151.732 68.9186 152.08 68.7498C152.437 68.5735 152.727 68.3085 152.952 67.9549C153.177 67.5932 153.306 67.165 153.339 66.6701Z" fill="white"/>
<rect x="1.05948" y="0.615967" width="150" height="43" rx="7" transform="rotate(1.41958 1.05948 0.615967)" fill="#009641"/>
<path d="M24.3717 34.1558L21.904 31.0457C21.1959 31.2042 20.4739 31.2743 19.7381 31.2561C18.1706 31.2172 16.7402 30.8137 15.4468 30.0454C14.1535 29.2771 13.1389 28.2357 12.4033 26.921C11.668 25.5904 11.3208 24.1013 11.3616 22.4539C11.4021 20.8224 11.8222 19.3683 12.6221 18.0917C13.4224 16.7992 14.4874 15.8012 15.8172 15.098C17.1471 14.3947 18.5957 14.0625 20.1633 14.1013C21.7468 14.1406 23.1772 14.5441 24.4546 15.312C25.7479 16.0803 26.7543 17.1296 27.4735 18.4598C28.2092 19.7744 28.5568 21.2475 28.5164 22.879C28.4795 24.3665 28.1259 25.7182 27.4556 26.9339C26.8016 28.1341 25.9213 29.1046 24.8146 29.8454L28.5464 34.2592L24.3717 34.1558ZM14.8166 22.5395C14.7888 23.6591 14.9804 24.6482 15.3912 25.5066C15.8021 26.3651 16.3857 27.0357 17.1419 27.5186C17.9146 27.9859 18.8048 28.232 19.8125 28.257C20.8202 28.282 21.7134 28.08 22.4923 27.6512C23.2715 27.2064 23.8876 26.5654 24.3405 25.7284C24.7934 24.8914 25.0337 23.913 25.0614 22.7934C25.0892 21.6737 24.8974 20.6926 24.4862 19.8502C24.0753 18.9918 23.4915 18.3291 22.7349 17.8622C21.9782 17.3953 21.096 17.1494 20.0883 17.1244C19.0806 17.0994 18.1794 17.3012 17.3845 17.7296C16.6057 18.1584 15.9898 18.7914 15.5369 19.6284C15.0844 20.4495 14.8443 21.4198 14.8166 22.5395ZM44.2309 18.3949L43.9015 31.6868L40.5185 31.603L40.5602 29.9235C40.114 30.4886 39.5349 30.9304 38.8228 31.2489C38.1271 31.5517 37.3713 31.693 36.5556 31.6728C35.5159 31.6471 34.6016 31.4083 33.8125 30.9567C33.0238 30.489 32.4081 29.8255 31.9652 28.9663C31.5388 28.0914 31.3402 27.0622 31.3696 25.8786L31.5628 18.081L34.9218 18.1642L34.7404 25.482C34.7143 26.5376 34.958 27.3599 35.4715 27.9488C35.9855 28.5217 36.6983 28.8195 37.6101 28.8421C38.5378 28.8651 39.2725 28.6032 39.8142 28.0565C40.3563 27.4937 40.6404 26.6845 40.6666 25.6288L40.8479 18.3111L44.2309 18.3949ZM49.7876 16.9481C49.1958 16.9335 48.7045 16.7372 48.3138 16.3594C47.9394 15.966 47.7592 15.4894 47.773 14.9296C47.7869 14.3698 47.9903 13.9107 48.3833 13.5523C48.7927 13.1783 49.2933 12.9987 49.8851 13.0133C50.477 13.028 50.9601 13.232 51.3344 13.6254C51.7252 14.0032 51.9136 14.472 51.8998 15.0319C51.8859 15.5917 51.6743 16.0586 51.2649 16.4326C50.8719 16.7909 50.3795 16.9628 49.7876 16.9481ZM51.4039 18.5727L51.0745 31.8646L47.7155 31.7813L48.0449 18.4894L51.4039 18.5727ZM54.194 25.2918C54.2281 23.9163 54.5377 22.7236 55.1229 21.7138C55.7085 20.6879 56.5041 19.9074 57.5096 19.3722C58.5156 18.8209 59.6584 18.5612 60.938 18.5929C62.5855 18.6337 63.9348 19.0833 64.9858 19.9416C66.0533 20.7843 66.7525 21.9539 67.0835 23.4506L63.4607 23.3608C63.283 22.7802 62.9662 22.3243 62.5103 21.9929C62.0707 21.6459 61.515 21.464 60.8433 21.4474C59.8835 21.4236 59.1151 21.7567 58.5378 22.4466C57.9609 23.1205 57.6566 24.0973 57.6249 25.3769C57.5936 26.6405 57.8491 27.6311 58.3915 28.3488C58.9343 29.0504 59.6856 29.4132 60.6453 29.4369C62.0048 29.4706 62.9076 28.8848 63.3536 27.6795L66.9765 27.7693C66.573 29.1997 65.8168 30.3253 64.7082 31.1461C63.5995 31.9669 62.2294 32.3571 60.5979 32.3166C59.3183 32.2849 58.1896 31.9769 57.2118 31.3925C56.2343 30.7921 55.4784 29.9731 54.9439 28.9355C54.4099 27.882 54.1599 26.6674 54.194 25.2918ZM77.6955 32.5243L73.3252 26.7502L73.1849 32.4125L69.8259 32.3293L70.2659 14.5747L73.6249 14.658L73.3746 24.7589L77.9769 19.2312L82.3436 19.3394L76.3241 25.8643L82.0622 32.6325L77.6955 32.5243ZM102.365 16.3785L102.298 19.0897L97.8356 18.9791L97.4878 33.0148L94.1288 32.9315L94.4767 18.8958L90.014 18.7852L90.0812 16.0741L102.365 16.3785ZM106.973 18.3653C106.381 18.3506 105.89 18.1544 105.499 17.7766C105.125 17.3832 104.945 16.9066 104.959 16.3467C104.972 15.7869 105.176 15.3278 105.569 14.9694C105.978 14.5955 106.479 14.4158 107.071 14.4305C107.663 14.4451 108.146 14.6492 108.52 15.0426C108.911 15.4204 109.099 15.8892 109.085 16.449C109.071 17.0088 108.86 17.4757 108.45 17.8497C108.057 18.2081 107.565 18.3799 106.973 18.3653ZM108.589 19.9898L108.26 33.2817L104.901 33.1985L105.23 19.9066L108.589 19.9898ZM115.719 22.0871C116.166 21.49 116.771 21.0008 117.532 20.6195C118.31 20.2227 119.187 20.0364 120.163 20.0605C121.299 20.0887 122.315 20.394 123.213 20.9764C124.127 21.5592 124.835 22.377 125.337 23.4298C125.856 24.4669 126.098 25.6653 126.064 27.0249C126.031 28.3845 125.729 29.5853 125.159 30.6275C124.605 31.6541 123.857 32.4439 122.915 32.9967C121.989 33.5499 120.958 33.8125 119.823 33.7843C118.847 33.7601 117.988 33.5388 117.247 33.1203C116.521 32.7022 115.933 32.1835 115.485 31.5642L115.281 39.7936L111.922 39.7104L112.408 20.0844L115.767 20.1677L115.719 22.0871ZM122.633 26.9398C122.653 26.1401 122.502 25.4481 122.181 24.864C121.875 24.2643 121.455 23.8057 120.918 23.4883C120.398 23.1713 119.826 23.0051 119.202 22.9896C118.594 22.9746 118.014 23.1203 117.463 23.4267C116.927 23.7175 116.484 24.1547 116.134 24.7382C115.799 25.322 115.622 26.0139 115.602 26.8136C115.582 27.6134 115.725 28.3131 116.03 28.9129C116.352 29.513 116.772 29.9796 117.292 30.3126C117.828 30.6299 118.4 30.7962 119.008 30.8112C119.632 30.8267 120.212 30.681 120.748 30.3742C121.299 30.0678 121.743 29.6226 122.077 29.0387C122.428 28.4552 122.613 27.7556 122.633 26.9398ZM133.92 34.1337C132.832 34.1067 131.862 33.8906 131.007 33.4853C130.153 33.064 129.479 32.5112 128.984 31.8267C128.505 31.1426 128.251 30.3921 128.223 29.5751L131.606 29.659C131.658 30.1724 131.895 30.6024 132.319 30.949C132.758 31.296 133.306 31.4776 133.962 31.4939C134.601 31.5097 135.1 31.3941 135.459 31.1469C135.833 30.9001 136.025 30.5767 136.035 30.1768C136.046 29.745 135.83 29.4195 135.387 29.2005C134.96 28.9659 134.271 28.7087 133.317 28.429C132.332 28.1645 131.522 27.8963 130.888 27.6246C130.271 27.3532 129.737 26.9478 129.286 26.4085C128.851 25.8696 128.645 25.1522 128.667 24.2565C128.685 23.5207 128.91 22.8541 129.341 22.2566C129.788 21.6595 130.408 21.1947 131.2 20.8622C132.009 20.5301 132.949 20.3774 134.02 20.4039C135.604 20.4432 136.858 20.8744 137.781 21.6975C138.706 22.5047 139.199 23.5812 139.262 24.9272L136.047 24.8475C136.012 24.3185 135.798 23.8971 135.406 23.5832C135.03 23.2538 134.514 23.081 133.858 23.0647C133.251 23.0497 132.776 23.15 132.434 23.3656C132.109 23.5816 131.941 23.8895 131.931 24.2894C131.92 24.7372 132.136 25.0867 132.578 25.3377C133.02 25.5727 133.71 25.8219 134.648 26.0852C135.602 26.3489 136.387 26.6165 137.005 26.8879C137.622 27.1592 138.148 27.5724 138.582 28.1273C139.033 28.6667 139.256 29.3764 139.25 30.2565C139.231 31.0243 138.998 31.7067 138.551 32.3038C138.12 32.9013 137.5 33.3661 136.692 33.6982C135.9 34.0147 134.976 34.1598 133.92 34.1337Z" fill="white"/>
<path d="M171.535 44.0775C161.643 43.8323 153.823 35.6148 154.068 25.7224C154.313 15.8319 162.53 8.01 172.423 8.25514C182.315 8.50029 190.135 16.7196 189.89 26.6102C189.645 36.5025 181.427 44.3226 171.535 44.0775ZM174.185 29.4147L174.905 28.8805C175.566 28.3897 176.124 27.7735 176.547 27.067C176.97 26.3605 177.25 25.5775 177.371 24.7629C177.491 23.9482 177.45 23.1178 177.25 22.3191C177.049 21.5203 176.694 20.7688 176.203 20.1075C175.712 19.4463 175.096 18.8881 174.389 18.465C173.683 18.0419 172.9 17.7621 172.085 17.6415C171.271 17.521 170.44 17.5621 169.641 17.7625C168.843 17.9629 168.091 18.3186 167.43 18.8094L166.71 19.3436C166.518 19.4823 166.354 19.658 166.23 19.8603C166.106 20.0627 166.023 20.2878 165.986 20.5225C165.95 20.7571 165.96 20.9967 166.017 21.2273C166.074 21.4579 166.176 21.6749 166.318 21.8656C166.459 22.0563 166.637 22.217 166.842 22.3383C167.046 22.4596 167.272 22.5391 167.507 22.5722C167.742 22.6053 167.982 22.5913 168.212 22.531C168.441 22.4707 168.657 22.3654 168.845 22.2211L169.565 21.6869C170.137 21.2649 170.854 21.087 171.557 21.1923C172.261 21.2976 172.894 21.6774 173.317 22.2485C173.741 22.8197 173.922 23.5356 173.819 24.2393C173.716 24.9431 173.338 25.5773 172.768 26.0031L172.049 26.5372C171.86 26.6775 171.7 26.8537 171.579 27.0556C171.459 27.2575 171.379 27.4813 171.344 27.7141C171.31 27.9469 171.322 28.1842 171.379 28.4124C171.436 28.6407 171.538 28.8554 171.678 29.0443C171.819 29.2333 171.995 29.3927 172.197 29.5136C172.399 29.6345 172.622 29.7144 172.855 29.7488C173.088 29.7832 173.325 29.7714 173.553 29.714C173.782 29.6567 173.996 29.555 174.185 29.4147ZM171.757 35.1219C172.232 35.1337 172.692 34.9563 173.037 34.6287C173.381 34.3011 173.581 33.8502 173.593 33.3752C173.604 32.9001 173.427 32.4399 173.099 32.0957C172.772 31.7514 172.321 31.5514 171.846 31.5397C171.371 31.5279 170.911 31.7053 170.566 32.0329C170.222 32.3605 170.022 32.8114 170.01 33.2864C169.999 33.7614 170.176 34.2217 170.504 34.5659C170.831 34.9101 171.282 35.1101 171.757 35.1219Z" fill="#009641"/>
</svg>
