<svg xmlns="http://www.w3.org/2000/svg" version="1.1" xmlns:xlink="http://www.w3.org/1999/xlink" xmlns:svgjs="http://svgjs.dev/svgjs" width="1440" height="560" preserveAspectRatio="none" viewBox="0 0 1440 560"><g mask="url(&quot;#SvgjsMask1011&quot;)" fill="none"><path d="M -318.98443066959715,257 C -222.98,302.8 -30.98,495.4 161.01556933040285,486 C 353.02,476.6 449.02,231 641.0155693304029,210 C 833.02,189 929.02,410.8 1121.0155693304027,381 C 1313.02,351.2 1537.22,56 1601.0155693304027,61 C 1664.81,66 1472.2,337 1440,406" stroke="rgba(57, 155, 83, 1)" stroke-width="2"></path><path d="M -576.8532033845008,311 C -480.85,304.4 -288.85,253.4 -96.85320338450086,278 C 95.15,302.6 191.15,442.4 383.14679661549917,434 C 575.15,425.6 671.15,253.4 863.1467966154992,236 C 1055.15,218.6 1227.78,349 1343.1467966154992,347 C 1458.52,345 1420.63,250.2 1440,226" stroke="rgba(57, 155, 83, 1)" stroke-width="2"></path><path d="M -746.1453917960175,420 C -650.15,350.2 -458.15,94 -266.1453917960175,71 C -74.15,48 21.85,291.4 213.85460820398248,305 C 405.85,318.6 501.85,113 693.8546082039825,139 C 885.85,165 1024.63,416.8 1173.8546082039825,435 C 1323.08,453.2 1386.77,271 1440,230" stroke="rgba(57, 155, 83, 1)" stroke-width="2"></path><path d="M -84.24234774723703,57 C 11.76,114 203.76,303.8 395.75765225276297,342 C 587.76,380.2 683.76,241.8 875.7576522527629,248 C 1067.76,254.2 1163.76,386.4 1355.757652252763,373 C 1547.76,359.6 1818.91,173.6 1835.757652252763,181 C 1852.61,188.4 1519.15,364.2 1440,410" stroke="rgba(57, 155, 83, 1)" stroke-width="2"></path></g><defs><mask id="SvgjsMask1011"><rect width="1440" height="560" fill="#ffffff"></rect></mask></defs></svg>